<svg xmlns="http://www.w3.org/2000/svg" viewBox="0 0 512 512" role="img" aria-label="Database Internals Bootcamp">
  <rect width="512" height="512" fill="#14161f"/>
  <!-- the database: a page stack (cylinder) fed by the write-ahead log -->
  <!-- WAL: an append-only stripe streaming in from the left -->
  <rect x="36" y="230" width="150" height="52" rx="14" fill="none" stroke="#57e0b0" stroke-width="18"/>
  <rect x="62" y="248" width="26" height="16" rx="5" fill="#57e0b0"/>
  <rect x="100" y="248" width="26" height="16" rx="5" fill="#57e0b0"/>
  <rect x="138" y="248" width="26" height="16" rx="5" fill="#ff9a6b"/>
  <!-- fsync arrow: log into the cylinder -->
  <line x1="196" y1="256" x2="238" y2="256" stroke="#8e86f0" stroke-width="20" stroke-linecap="round"/>
  <path d="M 232 234 L 268 256 L 232 278 Z" fill="#8e86f0"/>
  <!-- the cylinder: pages on disk -->
  <ellipse cx="366" cy="140" rx="110" ry="44" fill="none" stroke="#8e86f0" stroke-width="20"/>
  <path d="M 256 140 L 256 372 A 110 44 0 0 0 476 372 L 476 140" fill="none" stroke="#8e86f0" stroke-width="20"/>
  <path d="M 256 218 A 110 44 0 0 0 476 218" fill="none" stroke="#8e86f0" stroke-width="14" opacity=".6"/>
  <path d="M 256 296 A 110 44 0 0 0 476 296" fill="none" stroke="#8e86f0" stroke-width="14" opacity=".6"/>
  <!-- two overlapping transactions: reader and writer on the same rows -->
  <circle cx="330" cy="330" r="26" fill="#57e0b0"/>
  <circle cx="402" cy="330" r="26" fill="#ff9a6b" opacity=".9"/>
</svg>
