<svg xmlns="http://www.w3.org/2000/svg" viewBox="0 0 512 512" role="img" aria-label="Agent Memory Bootcamp">
  <rect width="512" height="512" fill="#14161f"/>
  <!-- the memory hierarchy: session window on top, long-term stores below -->
  <!-- session buffer: a finite window, one slot being evicted -->
  <rect x="76" y="84" width="360" height="88" rx="22" fill="none" stroke="#8e86f0" stroke-width="20"/>
  <rect x="112" y="112" width="56" height="32" rx="9" fill="#ff9a6b"/>
  <rect x="192" y="112" width="56" height="32" rx="9" fill="#8e86f0"/>
  <rect x="272" y="112" width="56" height="32" rx="9" fill="#8e86f0"/>
  <rect x="352" y="112" width="56" height="32" rx="9" fill="#57e0b0"/>
  <!-- consolidation: episodes flow down into the aggregate -->
  <line x1="176" y1="192" x2="232" y2="296" stroke="#8e86f0" stroke-width="20"/>
  <line x1="256" y1="192" x2="256" y2="296" stroke="#8e86f0" stroke-width="20"/>
  <line x1="336" y1="192" x2="280" y2="296" stroke="#8e86f0" stroke-width="20"/>
  <!-- the evolving aggregate profile -->
  <circle cx="256" cy="356" r="84" fill="#57e0b0"/>
  <circle cx="256" cy="356" r="40" fill="#14161f"/>
  <!-- strength rings: repetition made it stronger -->
  <path d="M 256 224 A 132 132 0 0 1 388 356" fill="none" stroke="#57e0b0" stroke-width="18" stroke-linecap="round" opacity=".55"/>
  <path d="M 124 356 A 132 132 0 0 1 256 224" fill="none" stroke="#ff9a6b" stroke-width="18" stroke-linecap="round" opacity=".55"/>
</svg>
